<svg width="200" height="200" viewBox="0 0 200 200" fill="none" xmlns="http://www.w3.org/2000/svg">
<rect width="200" height="200" fill="#CCFBF1"/>
<path d="M100 50C127.6 50 150 72.4 150 100C150 127.6 127.6 150 100 150C72.4 150 50 127.6 50 100C50 72.4 72.4 50 100 50ZM70.1166 117.081C77.4542 128.034 88.4756 135 100.799 135C113.122 135 124.143 128.034 131.481 117.081C123.443 109.586 112.656 105 100.799 105C88.9411 105 78.1548 109.586 70.1166 117.081ZM100 95C108.285 95 115 88.2842 115 80C115 71.7158 108.285 65 100 65C91.7155 65 85 71.7158 85 80C85 88.2842 91.7155 95 100 95Z" fill="#14B8A6"/>
</svg>
