<?xml version="1.0" encoding="UTF-8"?>
<!-- This file is generated by npm run build:icons -->
<svg xmlns="http://www.w3.org/2000/svg" xmlns:xlink="http://www.w3.org/1999/xlink" width="0" height="0">
<defs>
<symbol viewBox="0 0 24 24" fill="currentColor" id="account-circle-fill"><path d="M12 2C17.52 2 22 6.48 22 12C22 17.52 17.52 22 12 22C6.48 22 2 17.52 2 12C2 6.48 6.48 2 12 2ZM6.02332 15.4163C7.49083 17.6069 9.69511 19 12.1597 19C14.6243 19 16.8286 17.6069 18.2961 15.4163C16.6885 13.9172 14.5312 13 12.1597 13C9.78821 13 7.63095 13.9172 6.02332 15.4163ZM12 11C13.6569 11 15 9.65685 15 8C15 6.34315 13.6569 5 12 5C10.3431 5 9 6.34315 9 8C9 9.65685 10.3431 11 12 11Z"></path></symbol>
<symbol viewBox="0 0 24 24" fill="currentColor" id="account-circle-line"><path d="M12 2C17.5228 2 22 6.47715 22 12C22 17.5228 17.5228 22 12 22C6.47715 22 2 17.5228 2 12C2 6.47715 6.47715 2 12 2ZM12.1597 16C10.1243 16 8.29182 16.8687 7.01276 18.2556C8.38039 19.3474 10.114 20 12 20C13.9695 20 15.7727 19.2883 17.1666 18.1081C15.8956 16.8074 14.1219 16 12.1597 16ZM12 4C7.58172 4 4 7.58172 4 12C4 13.8106 4.6015 15.4807 5.61557 16.8214C7.25639 15.0841 9.58144 14 12.1597 14C14.6441 14 16.8933 15.0066 18.5218 16.6342C19.4526 15.3267 20 13.7273 20 12C20 7.58172 16.4183 4 12 4ZM12 5C14.2091 5 16 6.79086 16 9C16 11.2091 14.2091 13 12 13C9.79086 13 8 11.2091 8 9C8 6.79086 9.79086 5 12 5ZM12 7C10.8954 7 10 7.89543 10 9C10 10.1046 10.8954 11 12 11C13.1046 11 14 10.1046 14 9C14 7.89543 13.1046 7 12 7Z"></path></symbol>
<symbol viewBox="0 0 24 24" fill="currentColor" id="add-circle-line"><path d="M11 11V7H13V11H17V13H13V17H11V13H7V11H11ZM12 22C6.47715 22 2 17.5228 2 12C2 6.47715 6.47715 2 12 2C17.5228 2 22 6.47715 22 12C22 17.5228 17.5228 22 12 22ZM12 20C16.4183 20 20 16.4183 20 12C20 7.58172 16.4183 4 12 4C7.58172 4 4 7.58172 4 12C4 16.4183 7.58172 20 12 20Z"></path></symbol>
<symbol viewBox="0 0 24 24" fill="currentColor" id="add-fill"><path d="M11 11V5H13V11H19V13H13V19H11V13H5V11H11Z"></path></symbol>
<symbol viewBox="0 0 24 24" fill="currentColor" id="add-line"><path d="M11 11V5H13V11H19V13H13V19H11V13H5V11H11Z"></path></symbol>
<symbol viewBox="0 0 24 24" fill="currentColor" id="arrow-down-s-line"><path d="M11.9999 13.1714L16.9497 8.22168L18.3639 9.63589L11.9999 15.9999L5.63599 9.63589L7.0502 8.22168L11.9999 13.1714Z"></path></symbol>
<symbol viewBox="0 0 24 24" fill="currentColor" id="arrow-left-line"><path d="M7.82843 10.9999H20V12.9999H7.82843L13.1924 18.3638L11.7782 19.778L4 11.9999L11.7782 4.22168L13.1924 5.63589L7.82843 10.9999Z"></path></symbol>
<symbol viewBox="0 0 24 24" fill="currentColor" id="arrow-left-s-line"><path d="M10.8284 12.0007L15.7782 16.9504L14.364 18.3646L8 12.0007L14.364 5.63672L15.7782 7.05093L10.8284 12.0007Z"></path></symbol>
<symbol viewBox="0 0 24 24" fill="currentColor" id="arrow-right-line"><path d="M16.1716 10.9999L10.8076 5.63589L12.2218 4.22168L20 11.9999L12.2218 19.778L10.8076 18.3638L16.1716 12.9999H4V10.9999H16.1716Z"></path></symbol>
<symbol viewBox="0 0 24 24" fill="currentColor" id="arrow-right-s-line"><path d="M13.1717 12.0007L8.22192 7.05093L9.63614 5.63672L16.0001 12.0007L9.63614 18.3646L8.22192 16.9504L13.1717 12.0007Z"></path></symbol>
<symbol viewBox="0 0 24 24" fill="currentColor" id="arrow-up-s-line"><path d="M11.9999 10.8284L7.0502 15.7782L5.63599 14.364L11.9999 8L18.3639 14.364L16.9497 15.7782L11.9999 10.8284Z"></path></symbol>
<symbol viewBox="0 0 24 24" fill="currentColor" id="bank-card-fill"><path d="M22.0049 9.99979V19.9998C22.0049 20.5521 21.5572 20.9998 21.0049 20.9998H3.00488C2.4526 20.9998 2.00488 20.5521 2.00488 19.9998V9.99979H22.0049ZM22.0049 7.99979H2.00488V3.99979C2.00488 3.4475 2.4526 2.99979 3.00488 2.99979H21.0049C21.5572 2.99979 22.0049 3.4475 22.0049 3.99979V7.99979ZM15.0049 15.9998V17.9998H19.0049V15.9998H15.0049Z"></path></symbol>
<symbol viewBox="0 0 24 24" fill="currentColor" id="bank-card-line"><path d="M3.00488 2.99979H21.0049C21.5572 2.99979 22.0049 3.4475 22.0049 3.99979V19.9998C22.0049 20.5521 21.5572 20.9998 21.0049 20.9998H3.00488C2.4526 20.9998 2.00488 20.5521 2.00488 19.9998V3.99979C2.00488 3.4475 2.4526 2.99979 3.00488 2.99979ZM20.0049 10.9998H4.00488V18.9998H20.0049V10.9998ZM20.0049 8.99979V4.99979H4.00488V8.99979H20.0049ZM14.0049 14.9998H18.0049V16.9998H14.0049V14.9998Z"></path></symbol>
<symbol viewBox="0 0 24 24" fill="currentColor" id="bank-fill"><path d="M2 20H22V22H2V20ZM4 12H6V19H4V12ZM9 12H11V19H9V12ZM13 12H15V19H13V12ZM18 12H20V19H18V12ZM2 7L12 2L22 7V11H2V7ZM12 8C12.5523 8 13 7.55228 13 7C13 6.44772 12.5523 6 12 6C11.4477 6 11 6.44772 11 7C11 7.55228 11.4477 8 12 8Z"></path></symbol>
<symbol viewBox="0 0 24 24" fill="currentColor" id="bank-line"><path d="M2 20H22V22H2V20ZM4 12H6V19H4V12ZM9 12H11V19H9V12ZM13 12H15V19H13V12ZM18 12H20V19H18V12ZM2 7L12 2L22 7V11H2V7ZM4 8.23607V9H20V8.23607L12 4.23607L4 8.23607ZM12 8C11.4477 8 11 7.55228 11 7C11 6.44772 11.4477 6 12 6C12.5523 6 13 6.44772 13 7C13 7.55228 12.5523 8 12 8Z"></path></symbol>
<symbol viewBox="0 0 24 24" fill="currentColor" id="building-fill"><path d="M21 19H23V21H1V19H3V4C3 3.44772 3.44772 3 4 3H14C14.5523 3 15 3.44772 15 4V19H17V9H20C20.5523 9 21 9.44772 21 10V19ZM7 11V13H11V11H7ZM7 7V9H11V7H7Z"></path></symbol>
<symbol viewBox="0 0 24 24" fill="currentColor" id="building-line"><path d="M21 19H23V21H1V19H3V4C3 3.44772 3.44772 3 4 3H14C14.5523 3 15 3.44772 15 4V19H19V11H17V9H20C20.5523 9 21 9.44772 21 10V19ZM5 5V19H13V5H5ZM7 11H11V13H7V11ZM7 7H11V9H7V7Z"></path></symbol>
<symbol viewBox="0 0 24 24" fill="currentColor" id="calendar-2-line"><path d="M9 1V3H15V1H17V3H21C21.5523 3 22 3.44772 22 4V20C22 20.5523 21.5523 21 21 21H3C2.44772 21 2 20.5523 2 20V4C2 3.44772 2.44772 3 3 3H7V1H9ZM20 11H4V19H20V11ZM8 13V15H6V13H8ZM13 13V15H11V13H13ZM18 13V15H16V13H18ZM7 5H4V9H20V5H17V7H15V5H9V7H7V5Z"></path></symbol>
<symbol viewBox="0 0 24 24" fill="currentColor" id="check-fill"><path d="M9.9997 15.1709L19.1921 5.97852L20.6063 7.39273L9.9997 17.9993L3.63574 11.6354L5.04996 10.2212L9.9997 15.1709Z"></path></symbol>
<symbol viewBox="0 0 24 24" fill="currentColor" id="check-line"><path d="M9.9997 15.1709L19.1921 5.97852L20.6063 7.39273L9.9997 17.9993L3.63574 11.6354L5.04996 10.2212L9.9997 15.1709Z"></path></symbol>
<symbol viewBox="0 0 24 24" fill="currentColor" id="checkbox-circle-fill"><path d="M12 22C6.47715 22 2 17.5228 2 12C2 6.47715 6.47715 2 12 2C17.5228 2 22 6.47715 22 12C22 17.5228 17.5228 22 12 22ZM11.0026 16L18.0737 8.92893L16.6595 7.51472L11.0026 13.1716L8.17421 10.3431L6.75999 11.7574L11.0026 16Z"></path></symbol>
<symbol viewBox="0 0 24 24" fill="currentColor" id="checkbox-circle-line"><path d="M12 22C6.47715 22 2 17.5228 2 12C2 6.47715 6.47715 2 12 2C17.5228 2 22 6.47715 22 12C22 17.5228 17.5228 22 12 22ZM12 20C16.4183 20 20 16.4183 20 12C20 7.58172 16.4183 4 12 4C7.58172 4 4 7.58172 4 12C4 16.4183 7.58172 20 12 20ZM11.0026 16L6.75999 11.7574L8.17421 10.3431L11.0026 13.1716L16.6595 7.51472L18.0737 8.92893L11.0026 16Z"></path></symbol>
<symbol viewBox="0 0 24 24" fill="currentColor" id="circle-line"><path d="M12 22C6.47715 22 2 17.5228 2 12C2 6.47715 6.47715 2 12 2C17.5228 2 22 6.47715 22 12C22 17.5228 17.5228 22 12 22ZM12 20C16.4183 20 20 16.4183 20 12C20 7.58172 16.4183 4 12 4C7.58172 4 4 7.58172 4 12C4 16.4183 7.58172 20 12 20Z"></path></symbol>
<symbol viewBox="0 0 24 24" fill="currentColor" id="close-circle-line"><path d="M12 22C6.47715 22 2 17.5228 2 12C2 6.47715 6.47715 2 12 2C17.5228 2 22 6.47715 22 12C22 17.5228 17.5228 22 12 22ZM12 20C16.4183 20 20 16.4183 20 12C20 7.58172 16.4183 4 12 4C7.58172 4 4 7.58172 4 12C4 16.4183 7.58172 20 12 20ZM12 10.5858L14.8284 7.75736L16.2426 9.17157L13.4142 12L16.2426 14.8284L14.8284 16.2426L12 13.4142L9.17157 16.2426L7.75736 14.8284L10.5858 12L7.75736 9.17157L9.17157 7.75736L12 10.5858Z"></path></symbol>
<symbol viewBox="0 0 24 24" fill="currentColor" id="close-line"><path d="M11.9997 10.5865L16.9495 5.63672L18.3637 7.05093L13.4139 12.0007L18.3637 16.9504L16.9495 18.3646L11.9997 13.4149L7.04996 18.3646L5.63574 16.9504L10.5855 12.0007L5.63574 7.05093L7.04996 5.63672L11.9997 10.5865Z"></path></symbol>
<symbol viewBox="0 0 24 24" fill="currentColor" id="cross-line"><path d="M9 2H15V7H20V13H15V22H9V13H4V7H9V2ZM11 4V9H6V11H11V20H13V11H18V9H13V4H11Z"></path></symbol>
<symbol viewBox="0 0 24 24" fill="currentColor" id="delete-bin-2-line"><path d="M17 6H22V8H20V21C20 21.5523 19.5523 22 19 22H5C4.44772 22 4 21.5523 4 21V8H2V6H7V3C7 2.44772 7.44772 2 8 2H16C16.5523 2 17 2.44772 17 3V6ZM18 8H6V20H18V8ZM13.4142 13.9997L15.182 15.7675L13.7678 17.1817L12 15.4139L10.2322 17.1817L8.81802 15.7675L10.5858 13.9997L8.81802 12.232L10.2322 10.8178L12 12.5855L13.7678 10.8178L15.182 12.232L13.4142 13.9997ZM9 4V6H15V4H9Z"></path></symbol>
<symbol viewBox="0 0 24 24" fill="currentColor" id="delete-bin-line"><path d="M17 6H22V8H20V21C20 21.5523 19.5523 22 19 22H5C4.44772 22 4 21.5523 4 21V8H2V6H7V3C7 2.44772 7.44772 2 8 2H16C16.5523 2 17 2.44772 17 3V6ZM18 8H6V20H18V8ZM9 11H11V17H9V11ZM13 11H15V17H13V11ZM9 4V6H15V4H9Z"></path></symbol>
<symbol viewBox="0 0 24 24" fill="currentColor" id="door-lock-fill"><path d="M12 22C6.47715 22 2 17.5228 2 12C2 6.47715 6.47715 2 12 2C17.5228 2 22 6.47715 22 12C22 17.5228 17.5228 22 12 22ZM11 12.792V16H13V12.792C13.883 12.4062 14.5 11.5252 14.5 10.5C14.5 9.11929 13.3807 8 12 8C10.6193 8 9.5 9.11929 9.5 10.5C9.5 11.5252 10.117 12.4062 11 12.792Z"></path></symbol>
<symbol viewBox="0 0 24 24" fill="currentColor" id="door-lock-line"><path d="M12 22C6.47715 22 2 17.5228 2 12C2 6.47715 6.47715 2 12 2C17.5228 2 22 6.47715 22 12C22 17.5228 17.5228 22 12 22ZM12 20C16.4183 20 20 16.4183 20 12C20 7.58172 16.4183 4 12 4C7.58172 4 4 7.58172 4 12C4 16.4183 7.58172 20 12 20ZM11 12.792C10.117 12.4062 9.5 11.5252 9.5 10.5C9.5 9.11929 10.6193 8 12 8C13.3807 8 14.5 9.11929 14.5 10.5C14.5 11.5252 13.883 12.4062 13 12.792V16H11V12.792Z"></path></symbol>
<symbol viewBox="0 0 24 24" fill="currentColor" id="equalizer-2-fill"><path d="M3 7C3 5.067 4.567 3.5 6.5 3.5C8.433 3.5 10 5.067 10 7C10 8.933 8.433 10.5 6.5 10.5C4.567 10.5 3 8.933 3 7ZM20 8H12V6H20V8ZM14 17C14 15.067 15.567 13.5 17.5 13.5C19.433 13.5 21 15.067 21 17C21 18.933 19.433 20.5 17.5 20.5C15.567 20.5 14 18.933 14 17ZM12 16V18H4V16H12Z"></path></symbol>
<symbol viewBox="0 0 24 24" fill="currentColor" id="equalizer-2-line"><path d="M5 7C5 6.17157 5.67157 5.5 6.5 5.5C7.32843 5.5 8 6.17157 8 7C8 7.82843 7.32843 8.5 6.5 8.5C5.67157 8.5 5 7.82843 5 7ZM6.5 3.5C4.567 3.5 3 5.067 3 7C3 8.933 4.567 10.5 6.5 10.5C8.433 10.5 10 8.933 10 7C10 5.067 8.433 3.5 6.5 3.5ZM12 8H20V6H12V8ZM16 17C16 16.1716 16.6716 15.5 17.5 15.5C18.3284 15.5 19 16.1716 19 17C19 17.8284 18.3284 18.5 17.5 18.5C16.6716 18.5 16 17.8284 16 17ZM17.5 13.5C15.567 13.5 14 15.067 14 17C14 18.933 15.567 20.5 17.5 20.5C19.433 20.5 21 18.933 21 17C21 15.067 19.433 13.5 17.5 13.5ZM4 16V18H12V16H4Z"></path></symbol>
<symbol viewBox="0 0 24 24" fill="currentColor" id="expand-up-down-line"><path d="M18.2072 9.0428 12.0001 2.83569 5.79297 9.0428 7.20718 10.457 12.0001 5.66412 16.793 10.457 18.2072 9.0428ZM5.79282 14.9572 11.9999 21.1643 18.207 14.9572 16.7928 13.543 11.9999 18.3359 7.20703 13.543 5.79282 14.9572Z"></path></symbol>
<symbol viewBox="0 0 24 24" fill="currentColor" id="eye-line"><path d="M12.0003 3C17.3924 3 21.8784 6.87976 22.8189 12C21.8784 17.1202 17.3924 21 12.0003 21C6.60812 21 2.12215 17.1202 1.18164 12C2.12215 6.87976 6.60812 3 12.0003 3ZM12.0003 19C16.2359 19 19.8603 16.052 20.7777 12C19.8603 7.94803 16.2359 5 12.0003 5C7.7646 5 4.14022 7.94803 3.22278 12C4.14022 16.052 7.7646 19 12.0003 19ZM12.0003 16.5C9.51498 16.5 7.50026 14.4853 7.50026 12C7.50026 9.51472 9.51498 7.5 12.0003 7.5C14.4855 7.5 16.5003 9.51472 16.5003 12C16.5003 14.4853 14.4855 16.5 12.0003 16.5ZM12.0003 14.5C13.381 14.5 14.5003 13.3807 14.5003 12C14.5003 10.6193 13.381 9.5 12.0003 9.5C10.6196 9.5 9.50026 10.6193 9.50026 12C9.50026 13.3807 10.6196 14.5 12.0003 14.5Z"></path></symbol>
<symbol viewBox="0 0 24 24" fill="currentColor" id="eye-off-line"><path d="M17.8827 19.2968C16.1814 20.3755 14.1638 21.0002 12.0003 21.0002C6.60812 21.0002 2.12215 17.1204 1.18164 12.0002C1.61832 9.62282 2.81932 7.5129 4.52047 5.93457L1.39366 2.80777L2.80788 1.39355L22.6069 21.1925L21.1927 22.6068L17.8827 19.2968ZM5.9356 7.3497C4.60673 8.56015 3.6378 10.1672 3.22278 12.0002C4.14022 16.0521 7.7646 19.0002 12.0003 19.0002C13.5997 19.0002 15.112 18.5798 16.4243 17.8384L14.396 15.8101C13.7023 16.2472 12.8808 16.5002 12.0003 16.5002C9.51498 16.5002 7.50026 14.4854 7.50026 12.0002C7.50026 11.1196 7.75317 10.2981 8.19031 9.60442L5.9356 7.3497ZM12.9139 14.328L9.67246 11.0866C9.5613 11.3696 9.50026 11.6777 9.50026 12.0002C9.50026 13.3809 10.6196 14.5002 12.0003 14.5002C12.3227 14.5002 12.6309 14.4391 12.9139 14.328ZM20.8068 16.5925L19.376 15.1617C20.0319 14.2268 20.5154 13.1586 20.7777 12.0002C19.8603 7.94818 16.2359 5.00016 12.0003 5.00016C11.1544 5.00016 10.3329 5.11773 9.55249 5.33818L7.97446 3.76015C9.22127 3.26959 10.5793 3.00016 12.0003 3.00016C17.3924 3.00016 21.8784 6.87992 22.8189 12.0002C22.5067 13.6998 21.8038 15.2628 20.8068 16.5925ZM11.7229 7.50857C11.8146 7.50299 11.9071 7.50016 12.0003 7.50016C14.4855 7.50016 16.5003 9.51488 16.5003 12.0002C16.5003 12.0933 16.4974 12.1858 16.4919 12.2775L11.7229 7.50857Z"></path></symbol>
<symbol viewBox="0 0 24 24" fill="currentColor" id="file-cloud-fill"><path d="M14.9968 2L21 8L21.0012 12.2606C20.0501 11.4722 18.8302 11 17.5 11L17.2788 11.0044C14.784 11.103 12.7164 12.8635 12.1523 15.2093L12.136 15.283L12.1068 15.3024C10.8223 16.1634 10 17.6255 10 19.25C10 20.273 10.3242 21.2231 10.8771 22.0006L3.9934 22C3.48412 22 3.06409 21.6171 3.00669 21.1239L3 21.0082V2.9918C3 2.49363 3.38689 2.06546 3.88533 2.00683L4.00221 2H14.9968ZM17.5 13C19.433 13 21 14.567 21 16.5L20.9985 16.6033C22.1531 16.9285 23 17.9903 23 19.25C23 20.7125 21.8583 21.9084 20.4175 21.995L20.25 22H14.75L14.5825 21.995C13.1417 21.9084 12 20.7125 12 19.25C12 17.99 12.8474 16.9279 14.0034 16.6025L14 16.5C14 14.567 15.567 13 17.5 13Z"></path></symbol>
<symbol viewBox="0 0 24 24" fill="currentColor" id="file-download-line"><path d="M13 12H16L12 16L8 12H11V8H13V12ZM15 4H5V20H19V8H15V4ZM3 2.9918C3 2.44405 3.44749 2 3.9985 2H16L20.9997 7L21 20.9925C21 21.5489 20.5551 22 20.0066 22H3.9934C3.44476 22 3 21.5447 3 21.0082V2.9918Z"></path></symbol>
<symbol viewBox="0 0 24 24" fill="currentColor" id="file-excel-fill"><path d="M16 2L21 7V21.0082C21 21.556 20.5551 22 20.0066 22H3.9934C3.44476 22 3 21.5447 3 21.0082V2.9918C3 2.44405 3.44495 2 3.9934 2H16ZM13.2 12L16 8H13.6L12 10.2857L10.4 8H8L10.8 12L8 16H10.4L12 13.7143L13.6 16H16L13.2 12Z"></path></symbol>
<symbol viewBox="0 0 24 24" fill="currentColor" id="file-image-fill"><path d="M21 7L16 2H3.9934C3.44495 2 3 2.44405 3 2.9918V21.0082C3 21.5447 3.44476 22 3.9934 22H20.0066C20.5551 22 21 21.556 21 21.0082V7ZM11 9.5C11 10.3284 10.3284 11 9.5 11C8.67157 11 8 10.3284 8 9.5C8 8.67157 8.67157 8 9.5 8C10.3284 8 11 8.67157 11 9.5ZM17.5 17H8L13.5 10L17.5 17Z"></path></symbol>
<symbol viewBox="0 0 24 24" fill="currentColor" id="file-music-fill"><path d="M16 2L21 7V21.0082C21 21.556 20.5551 22 20.0066 22H3.9934C3.44476 22 3 21.5447 3 21.0082V2.9918C3 2.44405 3.44495 2 3.9934 2H16ZM11 12.05C10.8384 12.0172 10.6712 12 10.5 12C9.11929 12 8 13.1193 8 14.5C8 15.8807 9.11929 17 10.5 17C11.8807 17 13 15.8807 13 14.5V10H16V8H11V12.05Z"></path></symbol>
<symbol viewBox="0 0 24 24" fill="currentColor" id="file-pdf-2-fill"><path d="M3.9985 2C3.44749 2 3 2.44405 3 2.9918V21.0082C3 21.5447 3.44476 22 3.9934 22H20.0066C20.5551 22 21 21.5489 21 20.9925L20.9997 7L16 2H3.9985ZM10.5 7.5H12.5C12.5 9.98994 14.6436 12.6604 17.3162 13.5513L16.8586 15.49C13.7234 15.0421 10.4821 16.3804 7.5547 18.3321L6.3753 16.7191C7.46149 15.8502 8.50293 14.3757 9.27499 12.6534C10.0443 10.9373 10.5 9.07749 10.5 7.5ZM11.1 13.4716C11.3673 12.8752 11.6043 12.2563 11.8037 11.6285C12.2754 12.3531 12.8553 13.0182 13.5102 13.5953C12.5284 13.7711 11.5666 14.0596 10.6353 14.4276C10.8 14.1143 10.9551 13.7948 11.1 13.4716Z"></path></symbol>
<symbol viewBox="0 0 24 24" fill="currentColor" id="file-ppt-fill"><path d="M16 2L21 7V21.0082C21 21.556 20.5551 22 20.0066 22H3.9934C3.44476 22 3 21.5447 3 21.0082V2.9918C3 2.44405 3.44495 2 3.9934 2H16ZM8 8V16H10V14H16V8H8ZM10 10H14V12H10V10Z"></path></symbol>
<symbol viewBox="0 0 24 24" fill="currentColor" id="file-text-fill"><path d="M21 9V20.9925C21 21.5511 20.5552 22 20.0066 22H3.9934C3.44495 22 3 21.556 3 21.0082V2.9918C3 2.45531 3.44694 2 3.99826 2H14V8C14 8.55228 14.4477 9 15 9H21ZM21 7H16V2.00318L21 7ZM8 7V9H11V7H8ZM8 11V13H16V11H8ZM8 15V17H16V15H8Z"></path></symbol>
<symbol viewBox="0 0 24 24" fill="currentColor" id="file-text-line"><path d="M21 8V20.9932C21 21.5501 20.5552 22 20.0066 22H3.9934C3.44495 22 3 21.556 3 21.0082V2.9918C3 2.45531 3.4487 2 4.00221 2H14.9968L21 8ZM19 9H14V4H5V20H19V9ZM8 7H11V9H8V7ZM8 11H16V13H8V11ZM8 15H16V17H8V15Z"></path></symbol>
<symbol viewBox="0 0 24 24" fill="currentColor" id="file-unknow-fill"><path d="M16 2L21 7V21.0082C21 21.556 20.5551 22 20.0066 22H3.9934C3.44476 22 3 21.5447 3 21.0082V2.9918C3 2.44405 3.44495 2 3.9934 2H16ZM11 15V17H13V15H11ZM13 13.3551C14.4457 12.9248 15.5 11.5855 15.5 10C15.5 8.067 13.933 6.5 12 6.5C10.302 6.5 8.88637 7.70919 8.56731 9.31346L10.5288 9.70577C10.6656 9.01823 11.2723 8.5 12 8.5C12.8284 8.5 13.5 9.17157 13.5 10C13.5 10.8284 12.8284 11.5 12 11.5C11.4477 11.5 11 11.9477 11 12.5V14H13V13.3551Z"></path></symbol>
<symbol viewBox="0 0 24 24" fill="currentColor" id="file-video-fill"><path d="M16 2L21 7V21.0082C21 21.556 20.5551 22 20.0066 22H3.9934C3.44476 22 3 21.5447 3 21.0082V2.9918C3 2.44405 3.44495 2 3.9934 2H16ZM15.0008 11.667L10.1219 8.41435C10.0562 8.37054 9.979 8.34717 9.9 8.34717C9.6791 8.34717 9.5 8.52625 9.5 8.74717V15.2524C9.5 15.3314 9.5234 15.4086 9.5672 15.4743C9.6897 15.6581 9.9381 15.7078 10.1219 15.5852L15.0008 12.3326C15.0447 12.3033 15.0824 12.2656 15.1117 12.2217C15.2343 12.0379 15.1846 11.7895 15.0008 11.667Z"></path></symbol>
<symbol viewBox="0 0 24 24" fill="currentColor" id="file-word-fill"><path d="M16 2L21 7V21.0082C21 21.556 20.5551 22 20.0066 22H3.9934C3.44476 22 3 21.5447 3 21.0082V2.9918C3 2.44405 3.44495 2 3.9934 2H16ZM14 8V12.989L12 11L10.0108 13L10 8H8V16H10L12 14L14 16H16V8H14Z"></path></symbol>
<symbol viewBox="0 0 24 24" fill="currentColor" id="folder-3-fill"><path d="M22 8V20C22 20.5523 21.5523 21 21 21H3C2.44772 21 2 20.5523 2 20V7H21C21.5523 7 22 7.44772 22 8ZM12.4142 5H2V4C2 3.44772 2.44772 3 3 3H10.4142L12.4142 5Z"></path></symbol>
<symbol viewBox="0 0 24 24" fill="currentColor" id="folder-5-fill"><path d="M13.4144 5H20.0002C20.5525 5 21.0002 5.44772 21.0002 6V7H3.00017V4C3.00017 3.44772 3.44789 3 4.00017 3H11.4144L13.4144 5ZM3.08697 9H20.9134C21.4657 9 21.9134 9.44772 21.9134 10C21.9134 10.0277 21.9122 10.0554 21.9099 10.083L21.0766 20.083C21.0334 20.6013 20.6001 21 20.08 21H3.9203C3.40021 21 2.96695 20.6013 2.92376 20.083L2.09042 10.083C2.04456 9.53267 2.45355 9.04932 3.00392 9.00345C3.03155 9.00115 3.05925 9 3.08697 9Z"></path></symbol>
<symbol viewBox="0 0 24 24" fill="currentColor" id="folder-5-line"><path d="M3.08697 9H20.9134C21.4657 9 21.9134 9.44772 21.9134 10C21.9134 10.0277 21.9122 10.0554 21.9099 10.083L21.0766 20.083C21.0334 20.6013 20.6001 21 20.08 21H3.9203C3.40021 21 2.96695 20.6013 2.92376 20.083L2.09042 10.083C2.04456 9.53267 2.45355 9.04932 3.00392 9.00345C3.03155 9.00115 3.05925 9 3.08697 9ZM4.84044 19H19.1599L19.8266 11H4.17377L4.84044 19ZM13.4144 5H20.0002C20.5525 5 21.0002 5.44772 21.0002 6V7H3.00017V4C3.00017 3.44772 3.44789 3 4.00017 3H11.4144L13.4144 5Z"></path></symbol>
<symbol viewBox="0 0 24 24" fill="currentColor" id="folder-chart-2-fill"><path d="M12.4142 5H21C21.5523 5 22 5.44772 22 6V20C22 20.5523 21.5523 21 21 21H3C2.44772 21 2 20.5523 2 20V4C2 3.44772 2.44772 3 3 3H10.4142L12.4142 5ZM12 9C9.79086 9 8 10.7909 8 13C8 15.2091 9.79086 17 12 17C14.2091 17 16 15.2091 16 13H12V9Z"></path></symbol>
<symbol viewBox="0 0 24 24" fill="currentColor" id="folder-chart-2-line"><path d="M12.4142 5H21C21.5523 5 22 5.44772 22 6V20C22 20.5523 21.5523 21 21 21H3C2.44772 21 2 20.5523 2 20V4C2 3.44772 2.44772 3 3 3H10.4142L12.4142 5ZM4 5V19H20V7H11.5858L9.58579 5H4ZM12 9V13H16C16 15.2091 14.2091 17 12 17C9.79086 17 8 15.2091 8 13C8 10.7909 9.79086 9 12 9Z"></path></symbol>
<symbol viewBox="0 0 24 24" fill="currentColor" id="folder-chart-fill"><path d="M12.4142 5H21C21.5523 5 22 5.44772 22 6V20C22 20.5523 21.5523 21 21 21H3C2.44772 21 2 20.5523 2 20V4C2 3.44772 2.44772 3 3 3H10.4142L12.4142 5ZM11 9V17H13V9H11ZM15 12V17H17V12H15ZM7 14V17H9V14H7Z"></path></symbol>
<symbol viewBox="0 0 24 24" fill="currentColor" id="folder-chart-line"><path d="M12.4142 5H21C21.5523 5 22 5.44772 22 6V20C22 20.5523 21.5523 21 21 21H3C2.44772 21 2 20.5523 2 20V4C2 3.44772 2.44772 3 3 3H10.4142L12.4142 5ZM4 5V19H20V7H11.5858L9.58579 5H4ZM11 9H13V17H11V9ZM15 12H17V17H15V12ZM7 14H9V17H7V14Z"></path></symbol>
<symbol viewBox="0 0 24 24" fill="currentColor" id="folder-check-fill"><path d="M19 13C20.0929 13 21.1175 13.2922 22 13.8027V6C22 5.44772 21.5523 5 21 5H12.4142L10.4142 3H3C2.44772 3 2 3.44772 2 4V20C2 20.5523 2.44772 21 3 21H13.3414C13.1203 20.3744 13 19.7013 13 19C13 15.6863 15.6863 13 19 13ZM15.4645 18.4647L19 22.0002L23.9497 17.0505L22.5355 15.6362L19 19.1718L16.8787 17.0505L15.4645 18.4647Z"></path></symbol>
<symbol viewBox="0 0 24 24" fill="currentColor" id="google-fill"><path d="M3.06364 7.50914C4.70909 4.24092 8.09084 2 12 2C14.6954 2 16.959 2.99095 18.6909 4.60455L15.8227 7.47274C14.7864 6.48185 13.4681 5.97727 12 5.97727C9.39542 5.97727 7.19084 7.73637 6.40455 10.1C6.2045 10.7 6.09086 11.3409 6.09086 12C6.09086 12.6591 6.2045 13.3 6.40455 13.9C7.19084 16.2636 9.39542 18.0227 12 18.0227C13.3454 18.0227 14.4909 17.6682 15.3864 17.0682C16.4454 16.3591 17.15 15.3 17.3818 14.05H12V10.1818H21.4181C21.5364 10.8363 21.6 11.5182 21.6 12.2273C21.6 15.2727 20.5091 17.8363 18.6181 19.5773C16.9636 21.1046 14.7 22 12 22C8.09084 22 4.70909 19.7591 3.06364 16.4909C2.38638 15.1409 2 13.6136 2 12C2 10.3864 2.38638 8.85911 3.06364 7.50914Z"></path></symbol>
<symbol viewBox="0 0 24 24" fill="currentColor" id="group-2-fill"><path d="M10 19.748V16.4C10 15.1174 10.9948 14.1076 12.4667 13.5321C11.5431 13.188 10.5435 13 9.5 13C7.61013 13 5.86432 13.6168 4.45286 14.66C5.33199 17.1544 7.41273 19.082 10 19.748ZM18.8794 16.0859C18.4862 15.5526 17.1708 15 15.5 15C13.4939 15 12 15.7967 12 16.4V20C14.9255 20 17.4843 18.4296 18.8794 16.0859ZM9.55 11.5C10.7926 11.5 11.8 10.4926 11.8 9.25C11.8 8.00736 10.7926 7 9.55 7C8.30736 7 7.3 8.00736 7.3 9.25C7.3 10.4926 8.30736 11.5 9.55 11.5ZM15.5 12.5C16.6046 12.5 17.5 11.6046 17.5 10.5C17.5 9.39543 16.6046 8.5 15.5 8.5C14.3954 8.5 13.5 9.39543 13.5 10.5C13.5 11.6046 14.3954 12.5 15.5 12.5ZM12 22C6.47715 22 2 17.5228 2 12C2 6.47715 6.47715 2 12 2C17.5228 2 22 6.47715 22 12C22 17.5228 17.5228 22 12 22Z"></path></symbol>
<symbol viewBox="0 0 24 24" fill="currentColor" id="group-2-line"><path d="M9.55 11.5C8.30736 11.5 7.3 10.4926 7.3 9.25C7.3 8.00736 8.30736 7 9.55 7C10.7926 7 11.8 8.00736 11.8 9.25C11.8 10.4926 10.7926 11.5 9.55 11.5ZM10 19.748V16.4C10 15.9116 10.1442 15.4627 10.4041 15.0624C10.1087 15.0213 9.80681 15 9.5 15C7.93201 15 6.49369 15.5552 5.37091 16.4797C6.44909 18.0721 8.08593 19.2553 10 19.748ZM4.45286 14.66C5.86432 13.6168 7.61013 13 9.5 13C10.5435 13 11.5431 13.188 12.4667 13.5321C13.3447 13.1888 14.3924 13 15.5 13C17.1597 13 18.6849 13.4239 19.706 14.1563C19.8976 13.4703 20 12.7471 20 12C20 7.58172 16.4183 4 12 4C7.58172 4 4 7.58172 4 12C4 12.9325 4.15956 13.8278 4.45286 14.66ZM18.8794 16.0859C18.4862 15.5526 17.1708 15 15.5 15C13.4939 15 12 15.7967 12 16.4V20C14.9255 20 17.4843 18.4296 18.8794 16.0859ZM12 22C6.47715 22 2 17.5228 2 12C2 6.47715 6.47715 2 12 2C17.5228 2 22 6.47715 22 12C22 17.5228 17.5228 22 12 22ZM15.5 12.5C14.3954 12.5 13.5 11.6046 13.5 10.5C13.5 9.39543 14.3954 8.5 15.5 8.5C16.6046 8.5 17.5 9.39543 17.5 10.5C17.5 11.6046 16.6046 12.5 15.5 12.5Z"></path></symbol>
<symbol viewBox="0 0 24 24" fill="currentColor" id="home-2-fill"><path d="M20 20C20 20.5523 19.5523 21 19 21H5C4.44772 21 4 20.5523 4 20V11L1 11L11.3273 1.6115C11.7087 1.26475 12.2913 1.26475 12.6727 1.6115L23 11L20 11V20Z"></path></symbol>
<symbol viewBox="0 0 24 24" fill="currentColor" id="home-2-line"><path d="M19 21H5C4.44772 21 4 20.5523 4 20V11L1 11L11.3273 1.6115C11.7087 1.26475 12.2913 1.26475 12.6727 1.6115L23 11L20 11V20C20 20.5523 19.5523 21 19 21ZM6 19H18V9.15745L12 3.7029L6 9.15745V19Z"></path></symbol>
<symbol viewBox="0 0 24 24" fill="currentColor" id="information-line"><path d="M12 22C6.47715 22 2 17.5228 2 12C2 6.47715 6.47715 2 12 2C17.5228 2 22 6.47715 22 12C22 17.5228 17.5228 22 12 22ZM12 20C16.4183 20 20 16.4183 20 12C20 7.58172 16.4183 4 12 4C7.58172 4 4 7.58172 4 12C4 16.4183 7.58172 20 12 20ZM11 7H13V9H11V7ZM11 11H13V17H11V11Z"></path></symbol>
<symbol viewBox="0 0 24 24" fill="currentColor" id="link"><path d="M18.3638 15.5355L16.9496 14.1213L18.3638 12.7071C20.3164 10.7545 20.3164 7.58866 18.3638 5.63604C16.4112 3.68341 13.2453 3.68341 11.2927 5.63604L9.87849 7.05025L8.46428 5.63604L9.87849 4.22182C12.6122 1.48815 17.0443 1.48815 19.778 4.22182C22.5117 6.95549 22.5117 11.3876 19.778 14.1213L18.3638 15.5355ZM15.5353 18.364L14.1211 19.7782C11.3875 22.5118 6.95531 22.5118 4.22164 19.7782C1.48797 17.0445 1.48797 12.6123 4.22164 9.87868L5.63585 8.46446L7.05007 9.87868L5.63585 11.2929C3.68323 13.2455 3.68323 16.4113 5.63585 18.364C7.58847 20.3166 10.7543 20.3166 12.7069 18.364L14.1211 16.9497L15.5353 18.364ZM14.8282 7.75736L16.2425 9.17157L9.17139 16.2426L7.75717 14.8284L14.8282 7.75736Z"></path></symbol>
<symbol viewBox="0 0 24 24" fill="currentColor" id="list-check-3"><path d="M8.00008 6V9H5.00008V6H8.00008ZM3.00008 4V11H10.0001V4H3.00008ZM13.0001 4H21.0001V6H13.0001V4ZM13.0001 11H21.0001V13H13.0001V11ZM13.0001 18H21.0001V20H13.0001V18ZM10.7072 16.2071L9.29297 14.7929L6.00008 18.0858L4.20718 16.2929L2.79297 17.7071L6.00008 20.9142L10.7072 16.2071Z"></path></symbol>
<symbol viewBox="0 0 24 24" fill="currentColor" id="list-indefinite"><path d="M13 4H21V6H13V4ZM13 11H21V13H13V11ZM13 18H21V20H13V18ZM6.5 19C5.39543 19 4.5 18.1046 4.5 17C4.5 15.8954 5.39543 15 6.5 15C7.60457 15 8.5 15.8954 8.5 17C8.5 18.1046 7.60457 19 6.5 19ZM6.5 21C8.70914 21 10.5 19.2091 10.5 17C10.5 14.7909 8.70914 13 6.5 13C4.29086 13 2.5 14.7909 2.5 17C2.5 19.2091 4.29086 21 6.5 21ZM5 6V9H8V6H5ZM3 4H10V11H3V4Z"></path></symbol>
<symbol viewBox="0 0 24 24" fill="currentColor" id="loader-5-fill"><path d="M12 3C16.9706 3 21 7.02944 21 12H19C19 8.13401 15.866 5 12 5V3Z"></path></symbol>
<symbol viewBox="0 0 24 24" fill="currentColor" id="lock-2-fill"><path d="M18 8H20C20.5523 8 21 8.44772 21 9V21C21 21.5523 20.5523 22 20 22H4C3.44772 22 3 21.5523 3 21V9C3 8.44772 3.44772 8 4 8H6V7C6 3.68629 8.68629 1 12 1C15.3137 1 18 3.68629 18 7V8ZM11 15.7324V18H13V15.7324C13.5978 15.3866 14 14.7403 14 14C14 12.8954 13.1046 12 12 12C10.8954 12 10 12.8954 10 14C10 14.7403 10.4022 15.3866 11 15.7324ZM16 8V7C16 4.79086 14.2091 3 12 3C9.79086 3 8 4.79086 8 7V8H16Z"></path></symbol>
<symbol viewBox="0 0 24 24" fill="currentColor" id="lock-2-line"><path d="M6 8V7C6 3.68629 8.68629 1 12 1C15.3137 1 18 3.68629 18 7V8H20C20.5523 8 21 8.44772 21 9V21C21 21.5523 20.5523 22 20 22H4C3.44772 22 3 21.5523 3 21V9C3 8.44772 3.44772 8 4 8H6ZM19 10H5V20H19V10ZM11 15.7324C10.4022 15.3866 10 14.7403 10 14C10 12.8954 10.8954 12 12 12C13.1046 12 14 12.8954 14 14C14 14.7403 13.5978 15.3866 13 15.7324V18H11V15.7324ZM8 8H16V7C16 4.79086 14.2091 3 12 3C9.79086 3 8 4.79086 8 7V8Z"></path></symbol>
<symbol viewBox="0 0 24 24" fill="currentColor" id="mail-check-line"><path d="M22 14H20V7.23792L12.0718 14.338L4 7.21594V19H14V21H3C2.44772 21 2 20.5523 2 20V4C2 3.44772 2.44772 3 3 3H21C21.5523 3 22 3.44772 22 4V14ZM4.51146 5L12.0619 11.662L19.501 5H4.51146ZM19 22L15.4645 18.4645L16.8787 17.0503L19 19.1716L22.5355 15.636L23.9497 17.0503L19 22Z"></path></symbol>
<symbol viewBox="0 0 24 24" fill="currentColor" id="mail-close-line"><path d="M22 14H20V7.23792L12.0718 14.338L4 7.21594V19H15V21H3C2.44772 21 2 20.5523 2 20V4C2 3.44772 2.44772 3 3 3H21C21.5523 3 22 3.44772 22 4V14ZM4.51146 5L12.0619 11.662L19.501 5H4.51146ZM21.4142 19L23.5355 21.1213L22.1213 22.5355L20 20.4142L17.8787 22.5355L16.4645 21.1213L18.5858 19L16.4645 16.8787L17.8787 15.4645L20 17.5858L22.1213 15.4645L23.5355 16.8787L21.4142 19Z"></path></symbol>
<symbol viewBox="0 0 24 24" fill="currentColor" id="mail-line"><path d="M3 3H21C21.5523 3 22 3.44772 22 4V20C22 20.5523 21.5523 21 21 21H3C2.44772 21 2 20.5523 2 20V4C2 3.44772 2.44772 3 3 3ZM20 7.23792L12.0718 14.338L4 7.21594V19H20V7.23792ZM4.51146 5L12.0619 11.662L19.501 5H4.51146Z"></path></symbol>
<symbol viewBox="0 0 24 24" fill="currentColor" id="mail-send-fill"><path d="M2 5.5V3.9934C2 3.44476 2.45531 3 2.9918 3H21.0082C21.556 3 22 3.44495 22 3.9934V20.0066C22 20.5552 21.5447 21 21.0082 21H2.9918C2.44405 21 2 20.5551 2 20.0066V19H20V7.3L12 14.5L2 5.5ZM0 10H5V12H0V10ZM0 15H8V17H0V15Z"></path></symbol>
<symbol viewBox="0 0 24 24" fill="currentColor" id="mail-send-line"><path d="M21 3C21.5523 3 22 3.44772 22 4V20.0066C22 20.5552 21.5447 21 21.0082 21H2.9918C2.44405 21 2 20.5551 2 20.0066V19H20V7.3L12 14.5L2 5.5V4C2 3.44772 2.44772 3 3 3H21ZM8 15V17H0V15H8ZM5 10V12H0V10H5ZM19.5659 5H4.43414L12 11.8093L19.5659 5Z"></path></symbol>
<symbol viewBox="0 0 24 24" fill="currentColor" id="menu-line"><path d="M3 4H21V6H3V4ZM3 11H21V13H3V11ZM3 18H21V20H3V18Z"></path></symbol>
<symbol viewBox="0 0 24 24" fill="currentColor" id="money-dollar-circle-fill"><path d="M12.0049 22.0027C6.48204 22.0027 2.00488 17.5256 2.00488 12.0027C2.00488 6.4799 6.48204 2.00275 12.0049 2.00275C17.5277 2.00275 22.0049 6.4799 22.0049 12.0027C22.0049 17.5256 17.5277 22.0027 12.0049 22.0027ZM8.50488 14.0027V16.0027H11.0049V18.0027H13.0049V16.0027H14.0049C15.3856 16.0027 16.5049 14.8835 16.5049 13.5027C16.5049 12.122 15.3856 11.0027 14.0049 11.0027H10.0049C9.72874 11.0027 9.50488 10.7789 9.50488 10.5027C9.50488 10.2266 9.72874 10.0027 10.0049 10.0027H15.5049V8.00275H13.0049V6.00275H11.0049V8.00275H10.0049C8.62417 8.00275 7.50488 9.12203 7.50488 10.5027C7.50488 11.8835 8.62417 13.0027 10.0049 13.0027H14.0049C14.281 13.0027 14.5049 13.2266 14.5049 13.5027C14.5049 13.7789 14.281 14.0027 14.0049 14.0027H8.50488Z"></path></symbol>
<symbol viewBox="0 0 24 24" fill="currentColor" id="money-dollar-circle-line"><path d="M12.0049 22.0027C6.48204 22.0027 2.00488 17.5256 2.00488 12.0027C2.00488 6.4799 6.48204 2.00275 12.0049 2.00275C17.5277 2.00275 22.0049 6.4799 22.0049 12.0027C22.0049 17.5256 17.5277 22.0027 12.0049 22.0027ZM12.0049 20.0027C16.4232 20.0027 20.0049 16.421 20.0049 12.0027C20.0049 7.58447 16.4232 4.00275 12.0049 4.00275C7.5866 4.00275 4.00488 7.58447 4.00488 12.0027C4.00488 16.421 7.5866 20.0027 12.0049 20.0027ZM8.50488 14.0027H14.0049C14.281 14.0027 14.5049 13.7789 14.5049 13.5027C14.5049 13.2266 14.281 13.0027 14.0049 13.0027H10.0049C8.62417 13.0027 7.50488 11.8835 7.50488 10.5027C7.50488 9.12203 8.62417 8.00275 10.0049 8.00275H11.0049V6.00275H13.0049V8.00275H15.5049V10.0027H10.0049C9.72874 10.0027 9.50488 10.2266 9.50488 10.5027C9.50488 10.7789 9.72874 11.0027 10.0049 11.0027H14.0049C15.3856 11.0027 16.5049 12.122 16.5049 13.5027C16.5049 14.8835 15.3856 16.0027 14.0049 16.0027H13.0049V18.0027H11.0049V16.0027H8.50488V14.0027Z"></path></symbol>
<symbol viewBox="0 0 24 24" fill="currentColor" id="more-2-fill"><path d="M12 3C10.9 3 10 3.9 10 5C10 6.1 10.9 7 12 7C13.1 7 14 6.1 14 5C14 3.9 13.1 3 12 3ZM12 17C10.9 17 10 17.9 10 19C10 20.1 10.9 21 12 21C13.1 21 14 20.1 14 19C14 17.9 13.1 17 12 17ZM12 10C10.9 10 10 10.9 10 12C10 13.1 10.9 14 12 14C13.1 14 14 13.1 14 12C14 10.9 13.1 10 12 10Z"></path></symbol>
<symbol viewBox="0 0 24 24" fill="currentColor" id="notification-fill"><path d="M12 2C16.9706 2 21 6.04348 21 11.0314V20H3V11.0314C3 6.04348 7.02944 2 12 2ZM9.5 21H14.5C14.5 22.3807 13.3807 23.5 12 23.5C10.6193 23.5 9.5 22.3807 9.5 21Z"></path></symbol>
<symbol viewBox="0 0 24 24" fill="currentColor" id="notification-line"><path d="M5 18H19V11.0314C19 7.14806 15.866 4 12 4C8.13401 4 5 7.14806 5 11.0314V18ZM12 2C16.9706 2 21 6.04348 21 11.0314V20H3V11.0314C3 6.04348 7.02944 2 12 2ZM9.5 21H14.5C14.5 22.3807 13.3807 23.5 12 23.5C10.6193 23.5 9.5 22.3807 9.5 21Z"></path></symbol>
<symbol viewBox="0 0 24 24" fill="currentColor" id="pie-chart-2-fill"><path d="M11 2.04935V13H21.9506C21.4489 18.0533 17.1853 22 12 22C6.47715 22 2 17.5228 2 12C2 6.81462 5.94668 2.55107 11 2.04935ZM13 0.542847C18.5535 1.02121 22.9788 5.4465 23.4571 11H13V0.542847Z"></path></symbol>
<symbol viewBox="0 0 24 24" fill="currentColor" id="pie-chart-2-line"><path d="M12 0.5C18.3513 0.5 23.5 5.64873 23.5 12C23.5 12.3369 23.4855 12.6704 23.4571 13H21.9506C21.4489 18.0533 17.1853 22 12 22C6.47715 22 2 17.5228 2 12C2 6.81465 5.94668 2.5511 11 2.04938V0.542876C11.3296 0.514488 11.6631 0.5 12 0.5ZM11 4.06189C7.05369 4.55399 4 7.92038 4 12C4 16.4183 7.58172 20 12 20C16.0796 20 19.446 16.9463 19.9381 13H11V4.06189ZM13 2.552V11H21.448C20.9827 6.55197 17.448 3.01732 13 2.552Z"></path></symbol>
<symbol viewBox="0 0 24 24" fill="currentColor" id="pie-chart-fill"><path d="M11 2.04938V13H21.9506C21.4489 18.0533 17.1853 22 12 22C6.47715 22 2 17.5229 2 12C2 6.81465 5.94668 2.5511 11 2.04938ZM13 2.04938C17.7244 2.51845 21.4816 6.27559 21.9506 11H13V2.04938Z"></path></symbol>
<symbol viewBox="0 0 24 24" fill="currentColor" id="pie-chart-line"><path d="M9 2.4578V4.58152C6.06817 5.76829 4 8.64262 4 12C4 16.4183 7.58172 20 12 20C15.3574 20 18.2317 17.9318 19.4185 15H21.5422C20.2679 19.0571 16.4776 22 12 22C6.47715 22 2 17.5228 2 12C2 7.52236 4.94289 3.73207 9 2.4578ZM12 2C17.5228 2 22 6.47715 22 12C22 12.3375 21.9833 12.6711 21.9506 13H11V2.04938C11.3289 2.01672 11.6625 2 12 2ZM13 4.06189V11H19.9381C19.4869 7.38128 16.6187 4.51314 13 4.06189Z"></path></symbol>
<symbol viewBox="0 0 24 24" fill="currentColor" id="safe-2-fill"><path d="M10.0049 19.9998H6.00488V21.9998H4.00488V19.9998H3.00488C2.4526 19.9998 2.00488 19.552 2.00488 18.9998V3.99977C2.00488 3.44748 2.4526 2.99977 3.00488 2.99977H10.0049V1.59C10.0049 1.31385 10.2287 1.09 10.5049 1.09C10.5324 1.09 10.5599 1.09227 10.5871 1.0968L21.1693 2.8605C21.6515 2.94086 22.0049 3.35805 22.0049 3.84689V5.99977H23.0049V7.99977H22.0049V14.9998H23.0049V16.9998H22.0049V19.1526C22.0049 19.6415 21.6515 20.0587 21.1693 20.139L20.0049 20.3331V21.9998H18.0049V20.6664L10.5871 21.9027C10.3147 21.9481 10.0571 21.7641 10.0117 21.4917C10.0072 21.4646 10.0049 21.4371 10.0049 21.4095V19.9998ZM12.0049 19.6388L20.0049 18.3055V4.69402L12.0049 3.36069V19.6388ZM16.5049 13.9998C15.6765 13.9998 15.0049 12.8805 15.0049 11.4998C15.0049 10.1191 15.6765 8.99977 16.5049 8.99977C17.3333 8.99977 18.0049 10.1191 18.0049 11.4998C18.0049 12.8805 17.3333 13.9998 16.5049 13.9998Z"></path></symbol>
<symbol viewBox="0 0 24 24" fill="currentColor" id="safe-fill"><path d="M18.0049 19.9998H6.00488V21.9998H4.00488V19.9998H3.00488C2.4526 19.9998 2.00488 19.5521 2.00488 18.9998V3.99979C2.00488 3.4475 2.4526 2.99979 3.00488 2.99979H21.0049C21.5572 2.99979 22.0049 3.4475 22.0049 3.99979V18.9998C22.0049 19.5521 21.5572 19.9998 21.0049 19.9998H20.0049V21.9998H18.0049V19.9998ZM11.0049 13.8738V16.9998H13.0049V13.8738C14.7301 13.4297 16.0049 11.8636 16.0049 9.99979C16.0049 7.79065 14.214 5.99979 12.0049 5.99979C9.79574 5.99979 8.00488 7.79065 8.00488 9.99979C8.00488 11.8636 9.27966 13.4297 11.0049 13.8738ZM12.0049 11.9998C10.9003 11.9998 10.0049 11.1044 10.0049 9.99979C10.0049 8.89522 10.9003 7.99979 12.0049 7.99979C13.1095 7.99979 14.0049 8.89522 14.0049 9.99979C14.0049 11.1044 13.1095 11.9998 12.0049 11.9998Z"></path></symbol>
<symbol viewBox="0 0 24 24" fill="currentColor" id="safe-line"><path d="M18.0049 19.9998H6.00488V21.9998H4.00488V19.9998H3.00488C2.4526 19.9998 2.00488 19.5521 2.00488 18.9998V3.99979C2.00488 3.4475 2.4526 2.99979 3.00488 2.99979H21.0049C21.5572 2.99979 22.0049 3.4475 22.0049 3.99979V18.9998C22.0049 19.5521 21.5572 19.9998 21.0049 19.9998H20.0049V21.9998H18.0049V19.9998ZM4.00488 17.9998H20.0049V4.99979H4.00488V17.9998ZM13.0049 13.8738V16.9998H11.0049V13.8738C9.27966 13.4297 8.00488 11.8636 8.00488 9.99979C8.00488 7.79065 9.79574 5.99979 12.0049 5.99979C14.214 5.99979 16.0049 7.79065 16.0049 9.99979C16.0049 11.8636 14.7301 13.4297 13.0049 13.8738ZM12.0049 11.9998C13.1095 11.9998 14.0049 11.1044 14.0049 9.99979C14.0049 8.89522 13.1095 7.99979 12.0049 7.99979C10.9003 7.99979 10.0049 8.89522 10.0049 9.99979C10.0049 11.1044 10.9003 11.9998 12.0049 11.9998Z"></path></symbol>
<symbol viewBox="0 0 24 24" fill="currentColor" id="search-line"><path d="M18.031 16.6168L22.3137 20.8995L20.8995 22.3137L16.6168 18.031C15.0769 19.263 13.124 20 11 20C6.032 20 2 15.968 2 11C2 6.032 6.032 2 11 2C15.968 2 20 6.032 20 11C20 13.124 19.263 15.0769 18.031 16.6168ZM16.0247 15.8748C17.2475 14.6146 18 12.8956 18 11C18 7.1325 14.8675 4 11 4C7.1325 4 4 7.1325 4 11C4 14.8675 7.1325 18 11 18C12.8956 18 14.6146 17.2475 15.8748 16.0247L16.0247 15.8748Z"></path></symbol>
<symbol viewBox="0 0 24 24" fill="currentColor" id="share-line"><path d="M13.1202 17.0228L8.92129 14.7324C8.19135 15.5125 7.15261 16 6 16C3.79086 16 2 14.2091 2 12C2 9.79086 3.79086 8 6 8C7.15255 8 8.19125 8.48746 8.92118 9.26746L13.1202 6.97713C13.0417 6.66441 13 6.33707 13 6C13 3.79086 14.7909 2 17 2C19.2091 2 21 3.79086 21 6C21 8.20914 19.2091 10 17 10C15.8474 10 14.8087 9.51251 14.0787 8.73246L9.87977 11.0228C9.9583 11.3355 10 11.6629 10 12C10 12.3371 9.95831 12.6644 9.87981 12.9771L14.0788 15.2675C14.8087 14.4875 15.8474 14 17 14C19.2091 14 21 15.7909 21 18C21 20.2091 19.2091 22 17 22C14.7909 22 13 20.2091 13 18C13 17.6629 13.0417 17.3355 13.1202 17.0228ZM6 14C7.10457 14 8 13.1046 8 12C8 10.8954 7.10457 10 6 10C4.89543 10 4 10.8954 4 12C4 13.1046 4.89543 14 6 14ZM17 8C18.1046 8 19 7.10457 19 6C19 4.89543 18.1046 4 17 4C15.8954 4 15 4.89543 15 6C15 7.10457 15.8954 8 17 8ZM17 20C18.1046 20 19 19.1046 19 18C19 16.8954 18.1046 16 17 16C15.8954 16 15 16.8954 15 18C15 19.1046 15.8954 20 17 20Z"></path></symbol>
<symbol viewBox="0 0 24 24" fill="currentColor" id="shield-user-fill"><path d="M3.78307 2.82598L12 1L20.2169 2.82598C20.6745 2.92766 21 3.33347 21 3.80217V13.7889C21 15.795 19.9974 17.6684 18.3282 18.7812L12 23L5.6718 18.7812C4.00261 17.6684 3 15.795 3 13.7889V3.80217C3 3.33347 3.32553 2.92766 3.78307 2.82598ZM12 11C13.3807 11 14.5 9.88071 14.5 8.5C14.5 7.11929 13.3807 6 12 6C10.6193 6 9.5 7.11929 9.5 8.5C9.5 9.88071 10.6193 11 12 11ZM7.52746 16H16.4725C16.2238 13.75 14.3163 12 12 12C9.68372 12 7.77619 13.75 7.52746 16Z"></path></symbol>
<symbol viewBox="0 0 24 24" fill="currentColor" id="shield-user-line"><path d="M3.78307 2.82598L12 1L20.2169 2.82598C20.6745 2.92766 21 3.33347 21 3.80217V13.7889C21 15.795 19.9974 17.6684 18.3282 18.7812L12 23L5.6718 18.7812C4.00261 17.6684 3 15.795 3 13.7889V3.80217C3 3.33347 3.32553 2.92766 3.78307 2.82598ZM5 4.60434V13.7889C5 15.1263 5.6684 16.3752 6.7812 17.1171L12 20.5963L17.2188 17.1171C18.3316 16.3752 19 15.1263 19 13.7889V4.60434L12 3.04879L5 4.60434ZM12 11C10.6193 11 9.5 9.88071 9.5 8.5C9.5 7.11929 10.6193 6 12 6C13.3807 6 14.5 7.11929 14.5 8.5C14.5 9.88071 13.3807 11 12 11ZM7.52746 16C7.77619 13.75 9.68372 12 12 12C14.3163 12 16.2238 13.75 16.4725 16H7.52746Z"></path></symbol>
<symbol viewBox="0 0 24 24" fill="currentColor" id="sketching"><path d="M10.0357 7.69802C8.38492 9.55932 6.5134 12.2442 4.89465 15.4817C4.64766 15.9757 4.04698 16.1759 3.55301 15.9289C3.05903 15.6819 2.8588 15.0812 3.10579 14.5873C4.79739 11.2041 6.76494 8.37171 8.53943 6.37095C9.4251 5.37234 10.2797 4.56162 11.0449 3.99131C11.4272 3.7063 11.8049 3.46806 12.1677 3.29756C12.5193 3.13234 12.921 3 13.3336 3C13.5496 3 13.7872 3.0535 14.007 3.19476C14.2233 3.33371 14.3629 3.51925 14.4495 3.69083C14.6066 4.00215 14.624 4.33473 14.6201 4.55938C14.6118 5.03651 14.4847 5.6328 14.3216 6.23975C13.9874 7.48318 13.3994 9.13104 12.8149 10.7577L12.7329 10.9858C12.1671 12.5598 11.6101 14.1093 11.248 15.3466C11.1505 15.68 11.0706 15.9792 11.0094 16.2414C11.7035 15.6835 12.5581 14.8454 13.466 13.9534L13.4956 13.9243C14.3772 13.0581 15.3098 12.1418 16.0967 11.5127C16.4872 11.2006 16.9082 10.904 17.3138 10.7322C17.6544 10.5878 18.4343 10.3532 19.0407 10.9596C19.4251 11.344 19.5318 11.8438 19.5594 12.2164C19.5883 12.6064 19.5429 13.0267 19.4725 13.4261C19.3315 14.2258 19.0483 15.159 18.7894 16.0009L18.7478 16.136C18.5165 16.8874 18.3102 17.5577 18.1926 18.0965C18.4529 17.8352 18.7734 17.4216 19.1475 16.811C19.436 16.34 20.0517 16.1921 20.5226 16.4806C20.9935 16.7691 21.1414 17.3848 20.8529 17.8557C20.3099 18.7422 19.748 19.4622 19.1519 19.9092C18.5283 20.377 17.7121 20.6407 16.8863 20.2278C16.2779 19.9235 16.1398 19.3173 16.1091 18.9819C16.0759 18.6192 16.1284 18.2233 16.1979 17.8667C16.3288 17.1944 16.5829 16.3698 16.823 15.5907L16.8777 15.4129C17.1447 14.5451 17.3873 13.734 17.5028 13.0789C17.5117 13.0284 17.5196 12.9802 17.5266 12.9341C17.4697 12.977 17.4094 13.0239 17.3455 13.0749C16.6477 13.6328 15.785 14.4788 14.8677 15.38L14.8381 15.4091C13.9566 16.2752 13.024 17.1915 12.2371 17.8206C11.8466 18.1328 11.4255 18.4293 11.02 18.6012C10.6794 18.7455 9.89947 18.9801 9.29311 18.3738C8.9843 18.065 8.9052 17.6753 8.87972 17.4382C8.8515 17.1755 8.86901 16.8971 8.90269 16.6351C8.9706 16.1069 9.12934 15.4656 9.32855 14.7849C9.70829 13.4872 10.2842 11.8852 10.8411 10.3362L10.9327 10.0814C11.5263 8.42931 12.082 6.8674 12.3901 5.72074C12.4172 5.61968 12.4418 5.52435 12.4638 5.43468C12.3924 5.48361 12.3178 5.53695 12.2401 5.59489C11.6173 6.05907 10.8627 6.76559 10.0357 7.69802Z"></path></symbol>
<symbol viewBox="0 0 24 24" fill="currentColor" id="sparkling-fill"><path d="M14 4.4375C15.3462 4.4375 16.4375 3.34619 16.4375 2H17.5625C17.5625 3.34619 18.6538 4.4375 20 4.4375V5.5625C18.6538 5.5625 17.5625 6.65381 17.5625 8H16.4375C16.4375 6.65381 15.3462 5.5625 14 5.5625V4.4375ZM1 11C4.31371 11 7 8.31371 7 5H9C9 8.31371 11.6863 11 15 11V13C11.6863 13 9 15.6863 9 19H7C7 15.6863 4.31371 13 1 13V11ZM17.25 14C17.25 15.7949 15.7949 17.25 14 17.25V18.75C15.7949 18.75 17.25 20.2051 17.25 22H18.75C18.75 20.2051 20.2051 18.75 22 18.75V17.25C20.2051 17.25 18.75 15.7949 18.75 14H17.25Z"></path></symbol>
<symbol viewBox="0 0 24 24" fill="currentColor" id="terminal-box-fill"><path d="M3 3H21C21.5523 3 22 3.44772 22 4V20C22 20.5523 21.5523 21 21 21H3C2.44772 21 2 20.5523 2 20V4C2 3.44772 2.44772 3 3 3ZM12 15V17H18V15H12ZM8.41421 12L5.58579 14.8284L7 16.2426L11.2426 12L7 7.75736L5.58579 9.17157L8.41421 12Z"></path></symbol>
<symbol viewBox="0 0 24 24" fill="currentColor" id="terminal-box-line"><path d="M3 3H21C21.5523 3 22 3.44772 22 4V20C22 20.5523 21.5523 21 21 21H3C2.44772 21 2 20.5523 2 20V4C2 3.44772 2.44772 3 3 3ZM4 5V19H20V5H4ZM12 15H18V17H12V15ZM8.66685 12L5.83842 9.17157L7.25264 7.75736L11.4953 12L7.25264 16.2426L5.83842 14.8284L8.66685 12Z"></path></symbol>
<symbol viewBox="0 0 24 24" fill="currentColor" id="text"><path d="M13 6V21H11V6H5V4H19V6H13Z"></path></symbol>
<symbol viewBox="0 0 24 24" fill="currentColor" id="upload-cloud-2-fill"><path d="M12 12.5858L16.2426 16.8284L14.8284 18.2426L13 16.415V22H11V16.413L9.17157 18.2426L7.75736 16.8284L12 12.5858ZM12 2C15.5934 2 18.5544 4.70761 18.9541 8.19395C21.2858 8.83154 23 10.9656 23 13.5C23 16.3688 20.8036 18.7246 18.0006 18.9776L18 17C18 13.6863 15.3137 11 12 11C8.7616 11 6.12243 13.5656 6.00414 16.7751L6 17L6.00039 18.9776C3.19696 18.7252 1 16.3692 1 13.5C1 10.9656 2.71424 8.83154 5.04648 8.19411C5.44561 4.70761 8.40661 2 12 2Z"></path></symbol>
<symbol viewBox="0 0 24 24" fill="currentColor" id="upload-cloud-line"><path d="M1 14.5C1 12.1716 2.22429 10.1291 4.06426 8.9812C4.56469 5.044 7.92686 2 12 2C16.0731 2 19.4353 5.044 19.9357 8.9812C21.7757 10.1291 23 12.1716 23 14.5C23 17.9216 20.3562 20.7257 17 20.9811L7 21C3.64378 20.7257 1 17.9216 1 14.5ZM16.8483 18.9868C19.1817 18.8093 21 16.8561 21 14.5C21 12.927 20.1884 11.4962 18.8771 10.6781L18.0714 10.1754L17.9517 9.23338C17.5735 6.25803 15.0288 4 12 4C8.97116 4 6.42647 6.25803 6.0483 9.23338L5.92856 10.1754L5.12288 10.6781C3.81156 11.4962 3 12.927 3 14.5C3 16.8561 4.81833 18.8093 7.1517 18.9868L7.325 19H16.675L16.8483 18.9868ZM13 13V17H11V13H8L12 8L16 13H13Z"></path></symbol>
<symbol viewBox="0 0 24 24" fill="currentColor" id="upload-line"><path d="M3 19H21V21H3V19ZM13 5.82843V17H11V5.82843L4.92893 11.8995L3.51472 10.4853L12 2L20.4853 10.4853L19.0711 11.8995L13 5.82843Z"></path></symbol>
</defs>
</svg>
