<svg width="100" height="100" viewBox="0 0 100 100" fill="none" xmlns="http://www.w3.org/2000/svg">
<g clip-path="url(#clip0_27_5)">
<rect width="100" height="100" rx="50" fill="#18181B"/>
<g clip-path="url(#clip1_27_5)">
<path d="M67.9171 15.5855L62.0936 21.409C50.7998 16.6238 37.2469 18.8344 28.0405 28.0408C15.925 40.1563 15.9251 59.7993 28.0405 71.9148C37.2469 81.1212 50.7999 83.3316 62.0936 78.5466L67.9171 84.37C53.2977 92.0008 34.8344 89.6771 22.5563 77.399C7.41194 62.2547 7.41208 37.7007 22.5563 22.5565C34.8345 10.2783 53.2978 7.95458 67.9171 15.5855ZM77.3988 22.5565C92.543 37.7007 92.5431 62.2547 77.3988 77.399C76.4733 78.3245 75.5128 79.1935 74.5212 80.0057L44.4933 49.9778L74.5213 19.9498C75.5127 20.7621 76.4733 21.631 77.3988 22.5565ZM74.487 30.9526L55.4618 49.9778L74.4869 69.0029C83.1727 57.8427 83.1725 42.1129 74.487 30.9526Z" fill="white"/>
</g>
</g>
<defs>
<clipPath id="clip0_27_5">
<rect width="100" height="100" rx="50" fill="white"/>
</clipPath>
<clipPath id="clip1_27_5">
<rect width="93.0708" height="93.0708" fill="white" transform="translate(49.9775 -15.8333) rotate(45)"/>
</clipPath>
</defs>
</svg>
