<?xml version="1.0" encoding="utf-8"?>
<svg fill="#000000" width="800px" height="800px" viewBox="0 0 56 56" xmlns="http://www.w3.org/2000/svg"><path d="M 1.1883 43.4869 L 13.6935 43.4869 C 13.4483 44.4300 13.3162 45.3542 13.3162 46.2030 C 13.3162 49.2397 15.0138 51.4088 18.5786 51.4088 C 22.9168 51.4088 26.4250 48.3532 28.6884 43.4869 L 54.8118 43.4869 C 55.4719 43.4869 56 42.9777 56 42.3175 C 56 41.6574 55.4719 41.1670 54.8118 41.1670 L 29.6315 41.1670 C 30.6877 38.0737 31.3290 34.4523 31.4611 30.5290 C 32.6494 30.2650 33.8941 30.1329 35.1769 30.1329 C 35.8371 30.1329 36.2141 30.4159 36.2141 30.9063 C 36.2141 32.5472 35.3276 33.8298 35.3276 35.4708 C 35.3276 36.9043 36.3841 37.7719 37.7608 37.7719 C 41.5896 37.7719 46.2108 31.2269 47.7385 31.2269 C 49.1342 31.2269 47.3990 37.1117 52.1522 37.1117 C 52.9256 37.1117 53.9253 36.9043 54.6986 36.4139 C 55.1513 36.0932 55.4719 35.6405 55.4719 35.0558 C 55.4719 34.3391 55.0192 33.7544 54.2648 33.7544 C 53.6046 33.7544 53.0577 34.3013 52.4164 34.3013 C 50.3792 34.3013 52.3218 28.0393 48.5687 28.0393 C 45.2868 28.0393 40.1561 34.4145 38.8548 34.4145 C 38.6852 34.4145 38.5531 34.3202 38.5531 34.0939 C 38.5531 33.4149 39.4017 31.8871 39.4017 30.3593 C 39.4017 28.4732 37.8361 27.2660 35.3844 27.2660 C 34.0451 27.2660 32.7248 27.3980 31.4611 27.6432 C 31.0461 17.7032 26.3307 9.8756 19.1256 9.8756 C 14.2782 9.8756 10.5436 14.0063 10.5436 19.2687 C 10.5436 25.4176 14.5423 30.6799 19.5217 34.1693 C 17.3149 36.3384 15.5985 38.8093 14.5423 41.1670 L 1.1883 41.1670 C .5281 41.1670 0 41.6574 0 42.3175 C 0 42.9777 .5281 43.4869 1.1883 43.4869 Z M 13.4106 19.2687 C 13.4106 15.5907 15.9003 12.7426 19.1256 12.7426 C 24.7841 12.7426 28.4432 19.7780 28.6130 28.4166 C 26.0101 29.3219 23.6335 30.6988 21.5776 32.3397 C 17.6544 29.6237 13.4106 25.1347 13.4106 19.2687 Z M .6413 37.1495 C 1.1317 37.6399 1.8673 37.6210 2.3765 37.1495 L 4.7342 34.7918 L 7.0919 37.1495 C 7.5823 37.6399 8.3368 37.6399 8.8272 37.1495 C 9.3176 36.6591 9.3176 35.9046 8.8272 35.4142 L 6.4695 33.0754 L 8.8272 30.7177 C 9.3176 30.2273 9.3176 29.4917 8.8272 29.0012 C 8.3368 28.4920 7.5823 28.5109 7.0919 29.0012 L 4.7342 31.3401 L 2.3765 29.0012 C 1.8673 28.4920 1.1317 28.4920 .6413 29.0012 C .1509 29.4917 .1509 30.2461 .6413 30.7177 L 2.9990 33.0754 L .6413 35.4142 C .1509 35.9235 .1509 36.6591 .6413 37.1495 Z M 23.6335 36.5459 C 23.8787 36.6591 24.1051 36.7156 24.3314 36.7156 C 25.1047 36.7156 25.6517 36.1121 25.6517 35.4708 C 25.6517 34.9992 25.4254 34.5466 24.8784 34.2825 C 24.6143 34.1505 24.3503 34.0184 24.0674 33.8675 C 25.4254 32.9056 26.9343 32.0568 28.5564 31.4155 C 28.3300 35.0558 27.6322 38.4132 26.5571 41.1670 L 17.5790 41.1670 C 18.5597 39.3185 20.0309 37.3758 21.8982 35.6594 C 22.4641 35.9800 23.0488 36.2630 23.6335 36.5459 Z M 16.2586 45.6560 C 16.2586 44.9959 16.3718 44.2603 16.6170 43.4869 L 25.4820 43.4869 C 23.7844 46.6180 21.5022 48.5418 18.8993 48.5418 C 17.0886 48.5418 16.2586 47.3536 16.2586 45.6560 Z"/></svg>